<svg version="1.1" xmlns="http://www.w3.org/2000/svg" xmlns:xlink="http://www.w3.org/1999/xlink" width="424" height="127" viewBox="0,0,424,127"><g transform="translate(-36.5,-113.7)"><g data-paper-data="{&quot;isPaintingLayer&quot;:true}" fill-rule="nonzero" stroke="none" stroke-linecap="butt" stroke-linejoin="miter" stroke-miterlimit="10" stroke-dasharray="" stroke-dashoffset="0" style="mix-blend-mode: normal"><path d="M36.5,230.95c0,-25.53434 0,-93.36474 0,-107.5c0,-6.19979 4.30021,-9.75 10.5,-9.75c10.9797,0 50.31804,0 100.65766,0c104.81262,0 257.31778,0 300.84234,0c7.02937,0 12,3.72063 12,10.75c0,14.29258 0,78.69096 0,105c0,6.97807 -4.02193,11.25 -11,11.25c-50.27166,0 -261.79206,0 -403.5,0c-5.50059,0 -9.5,-9.75 -9.5,-9.75z" fill="#ff6e6e" stroke-width="0"/><text transform="translate(39.5883,199.26875) scale(1.6701,1.6701)" font-size="40" xml:space="preserve" fill="#ffffff" fill-rule="nonzero" stroke="none" stroke-width="1" stroke-linecap="butt" stroke-linejoin="miter" stroke-miterlimit="10" stroke-dasharray="" stroke-dashoffset="0" font-family="Pixel" font-weight="normal" text-anchor="start" style="mix-blend-mode: normal"><tspan x="0" dy="0">千牛编程思维</tspan></text></g></g></svg>